<?xml version="1.0" standalone="no"?>
<!DOCTYPE svg PUBLIC "-//W3C//DTD SVG 20010904//EN"
 "http://www.w3.org/TR/2001/REC-SVG-20010904/DTD/svg10.dtd">
<svg version="1.0" xmlns="http://www.w3.org/2000/svg"
 width="512.000000pt" height="512.000000pt" viewBox="0 0 512.000000 512.000000"
 preserveAspectRatio="xMidYMid meet">
<g transform="translate(0.000000,512.000000) scale(0.100000,-0.100000)"
fill="##FFFF00" stroke="#FFFF00">
<path d="M3852 4412 c-16 -11 -152 -334 -152 -361 0 -12 11 -28 25 -37 44 -29
63 -4 138 178 37 91 67 172 67 181 0 35 -47 58 -78 39z"/>
<path d="M2827 4328 c-9 -7 -32 -57 -51 -112 -84 -236 -227 -411 -411 -501
-95 -47 -171 -66 -295 -72 -197 -10 -333 39 -456 161 -39 39 -81 91 -95 116
-20 36 -30 46 -55 48 -51 5 -58 -14 -44 -112 17 -111 8 -283 -18 -356 -34 -98
-63 -143 -136 -216 -121 -120 -280 -190 -513 -223 -177 -26 -182 -39 -58 -166
47 -48 107 -117 135 -153 60 -79 133 -225 150 -301 17 -71 8 -222 -16 -281
-51 -127 -155 -252 -284 -341 -55 -38 -65 -49 -65 -74 0 -39 32 -55 111 -55
34 0 99 -7 144 -16 296 -56 472 -225 532 -511 17 -81 19 -122 15 -240 -4 -125
-3 -144 12 -157 26 -24 45 -20 98 22 119 94 234 161 358 210 130 51 205 66
345 65 105 -1 139 -5 214 -27 166 -50 329 -150 449 -275 82 -85 102 -82 143
20 113 277 272 442 499 515 162 53 399 43 601 -25 83 -28 91 -29 113 -14 21
14 23 20 17 67 -37 284 -21 430 66 586 91 164 275 297 483 350 44 11 83 24 88
29 13 13 12 60 0 72 -6 6 -50 19 -99 30 -389 85 -637 268 -728 539 -39 116
-51 237 -37 370 13 122 47 264 87 364 28 71 28 103 2 120 -19 12 -26 10 -188
-57 -319 -133 -595 -111 -780 60 -110 101 -188 242 -239 429 -33 121 -51 144
-94 112z m53 -311 c90 -217 244 -371 440 -441 81 -30 92 -31 235 -31 159 1
234 15 381 70 35 13 64 22 64 20 0 -3 -11 -47 -25 -99 -36 -140 -48 -255 -42
-386 6 -122 21 -194 63 -299 54 -136 166 -274 294 -361 76 -51 248 -135 313
-152 26 -6 47 -15 47 -18 0 -4 -19 -16 -42 -26 -118 -53 -259 -168 -328 -269
-96 -140 -135 -285 -134 -498 0 -145 0 -148 -20 -142 -145 43 -330 61 -457 45
-300 -39 -521 -197 -666 -476 -26 -52 -51 -94 -54 -94 -3 0 -28 19 -56 43
-392 335 -858 355 -1307 56 -32 -21 -59 -39 -60 -39 0 0 -2 39 -4 88 -7 242
-75 416 -222 562 -68 69 -102 94 -170 128 -79 38 -184 72 -273 87 l-38 6 73
78 c220 236 261 495 123 771 -41 80 -116 188 -184 262 l-52 56 58 12 c236 45
433 150 548 290 87 106 145 266 145 402 0 37 3 68 6 68 3 0 27 -18 52 -40 61
-54 190 -117 277 -135 148 -31 346 -13 489 44 104 42 176 90 267 181 81 81
138 158 188 259 18 34 34 61 36 60 1 -2 17 -39 35 -82z" />
<path d="M2756 3636 c-147 -151 -297 -235 -485 -270 -150 -29 -356 -14 -499
35 -30 10 -63 19 -72 19 -28 0 -50 -34 -50 -76 0 -57 -27 -141 -62 -196 -67
-106 -225 -211 -381 -253 -71 -19 -93 -39 -82 -75 12 -39 41 -43 118 -20 156
48 273 116 370 218 61 65 120 174 132 243 4 26 11 39 19 36 113 -43 420 -56
561 -23 98 22 208 66 299 120 108 64 286 240 286 283 0 16 -36 53 -51 53 -6 0
-53 -42 -103 -94z"/>
<path d="M3546 1684 c-203 -40 -390 -145 -539 -303 -144 -153 -175 -241 -85
-241 22 0 35 11 68 59 143 211 361 353 600 391 86 13 164 13 284 -2 93 -12 99
-11 112 7 19 25 18 41 -5 64 -38 38 -294 53 -435 25z"/>
<path d="M758 3689 c-11 -6 -18 -22 -18 -38 0 -24 19 -46 105 -125 58 -53 114
-96 124 -96 26 0 51 26 51 54 0 17 -29 49 -106 117 -108 96 -126 107 -156 88z"/>
<path d="M4690 3316 c-41 -18 -119 -52 -173 -76 -106 -46 -129 -69 -108 -109
19 -34 54 -26 236 53 142 61 172 78 179 99 8 21 6 31 -9 47 -24 27 -37 25
-125 -14z"/>
<path d="M222 2308 c-15 -15 -15 -61 0 -76 8 -8 61 -12 173 -12 144 0 164 2
178 18 22 24 21 45 -1 65 -16 14 -44 17 -178 17 -111 0 -164 -4 -172 -12z"/>
<path d="M4486 1785 c-19 -19 -21 -58 -3 -72 6 -6 63 -36 124 -68 101 -52 115
-57 139 -47 21 10 25 18 22 45 -3 30 -10 36 -112 90 -130 68 -148 74 -170 52z"/>
<path d="M998 1113 c-52 -56 -178 -225 -178 -239 0 -15 34 -54 48 -54 32 0
222 232 222 272 0 53 -51 64 -92 21z"/>
</g>
</svg>
