<?xml version="1.0" standalone="no"?>
<!DOCTYPE svg PUBLIC "-//W3C//DTD SVG 20010904//EN"
 "http://www.w3.org/TR/2001/REC-SVG-20010904/DTD/svg10.dtd">
<svg version="1.0" xmlns="http://www.w3.org/2000/svg"
 width="1024.000000pt" height="754.000000pt" viewBox="0 0 1024.000000 754.000000"
 preserveAspectRatio="xMidYMid meet">

<g transform="translate(0.000000,754.000000) scale(0.100000,-0.100000)"
fill="#000000" stroke="none">
<path d="M8300 7354 l-173 -175 -220 100 c-121 56 -222 99 -224 97 -3 -2 45
-98 106 -213 61 -115 111 -214 111 -219 0 -5 -74 -90 -164 -189 -90 -99 -163
-181 -162 -182 1 -1 103 16 226 38 124 21 234 39 246 39 16 0 45 -43 139 -211
90 -159 121 -206 127 -192 5 14 68 441 68 464 0 3 108 28 240 54 132 27 240
52 240 55 0 4 -98 54 -218 113 l-218 105 27 244 c15 133 26 244 25 245 -2 2
-81 -76 -176 -173z m41 -210 c-6 -49 -13 -108 -16 -131 l-6 -42 127 -64 127
-64 -104 -21 c-57 -12 -119 -25 -137 -28 -37 -7 -35 -1 -58 -164 -9 -63 -17
-116 -19 -118 -1 -1 -33 51 -69 118 -37 66 -70 120 -73 120 -3 0 -61 -9 -130
-21 -68 -12 -127 -19 -130 -15 -3 3 35 49 85 102 l90 98 -65 123 c-36 68 -63
123 -60 123 2 0 59 -25 127 -56 l123 -56 96 96 c52 52 97 94 98 92 2 -2 -1
-43 -6 -92z"/>
<path d="M388 6927 l-157 -52 950 -625 c1016 -668 1022 -672 999 -648 -74 75
-1603 1378 -1617 1377 -10 0 -89 -24 -175 -52z"/>
<path d="M5432 6384 c-227 -321 -417 -584 -421 -584 -4 0 -207 191 -451 425
-244 234 -446 422 -450 418 -4 -4 -44 -222 -89 -483 -45 -261 -85 -483 -89
-492 -6 -15 -131 49 -822 416 -448 239 -817 433 -818 431 -2 -2 69 -265 159
-584 89 -320 160 -583 158 -584 -2 -2 -276 25 -609 59 -333 35 -609 62 -613
61 -5 -1 152 -158 349 -347 259 -250 353 -346 338 -347 -10 -1 -426 -32 -924
-68 -498 -36 -922 -69 -942 -73 -32 -6 92 -41 832 -232 480 -124 863 -228 856
-232 -7 -4 -307 -131 -666 -283 -643 -272 -695 -294 -675 -295 21 0 1440 -353
1448 -360 4 -4 -292 -225 -658 -491 -366 -266 -662 -485 -657 -487 4 -1 441
74 972 167 531 93 966 168 967 167 1 -1 -128 -199 -288 -440 -159 -241 -288
-440 -287 -441 2 -1 306 156 676 350 369 194 672 348 672 341 0 -6 -83 -274
-185 -596 -101 -321 -183 -585 -182 -586 1 -1 234 198 517 442 l515 443 7 -42
c3 -23 25 -240 49 -482 23 -242 45 -443 49 -448 3 -4 175 220 381 497 276 372
377 501 385 493 6 -7 165 -259 354 -560 189 -301 346 -544 350 -540 4 4 69
235 145 513 76 278 141 508 144 512 3 4 245 -145 536 -330 292 -186 547 -348
567 -360 l37 -23 -24 88 c-14 48 -76 272 -139 498 -63 225 -113 411 -112 413
2 1 409 -155 906 -348 496 -193 903 -350 905 -348 1 2 -242 226 -542 498 -299
272 -556 507 -570 523 l-27 27 29 -5 c58 -10 1217 -126 1221 -122 2 2 -156
116 -352 253 -223 156 -349 250 -337 252 10 1 394 -15 853 -37 459 -22 835
-39 837 -38 1 2 -350 164 -780 361 -430 198 -786 362 -791 367 -4 4 233 87
528 184 295 96 536 177 536 179 0 2 -191 45 -425 97 -234 51 -425 96 -425 99
0 3 259 95 574 205 316 110 573 201 572 203 -3 2 -1377 31 -1525 32 -40 0 -61
4 -55 9 5 5 211 131 459 280 378 228 444 271 415 271 -19 0 -320 -22 -669 -50
-349 -27 -636 -48 -637 -47 -1 1 166 231 372 511 206 280 373 511 371 513 -2
2 -319 -132 -703 -298 -384 -165 -709 -305 -720 -309 -20 -8 -12 29 102 478
67 267 121 488 119 490 -2 3 -240 -122 -527 -277 l-523 -281 -6 28 c-4 15 -33
233 -65 485 -32 251 -60 457 -63 456 -3 0 -192 -263 -419 -585z m293 -381 c26
-208 49 -379 50 -381 1 -1 191 98 421 222 230 123 420 223 421 222 2 -2 -42
-175 -96 -387 -54 -211 -98 -385 -96 -386 1 -2 260 107 575 242 316 135 575
244 576 242 1 -1 -132 -184 -297 -406 -164 -222 -298 -405 -297 -406 2 -1 221
15 488 36 267 21 504 38 528 36 43 -2 37 -6 -318 -217 l-361 -215 173 -6 c95
-4 382 -10 638 -14 448 -8 464 -8 425 -25 -22 -9 -228 -81 -457 -160 -230 -79
-418 -146 -418 -149 0 -3 143 -37 318 -75 174 -38 325 -72 336 -76 12 -4 -67
-34 -235 -89 -519 -168 -598 -196 -591 -203 4 -4 273 -128 599 -277 326 -148
605 -277 620 -286 27 -15 23 -15 -72 -10 -349 19 -1182 56 -1215 53 -40 -3
-40 -4 240 -197 154 -107 278 -196 276 -198 -2 -2 -223 19 -492 47 -269 27
-493 50 -497 50 -4 0 183 -172 415 -381 233 -210 439 -397 458 -416 l35 -34
-65 25 c-36 13 -335 128 -665 256 -773 299 -725 281 -720 267 22 -66 215 -770
212 -773 -2 -2 -203 122 -446 276 -244 154 -447 280 -451 280 -7 0 -22 -50
-156 -538 -69 -251 -80 -282 -92 -265 -7 10 -135 210 -284 446 l-270 427 -301
-400 c-165 -220 -302 -399 -304 -396 -3 2 -22 174 -42 380 -21 207 -40 379
-43 382 -3 2 -187 -151 -409 -340 -222 -189 -405 -343 -407 -341 -2 2 62 211
142 466 81 254 145 463 144 465 -2 1 -160 -80 -353 -180 -192 -100 -435 -226
-540 -280 -169 -89 -187 -96 -170 -70 10 16 114 173 231 348 118 176 212 322
210 323 -2 2 -344 -55 -761 -127 -416 -72 -762 -129 -767 -128 -6 2 226 175
515 383 290 209 523 383 519 386 -4 4 -261 69 -572 144 -311 76 -568 141 -572
144 -4 3 235 107 532 231 331 139 532 227 522 231 -10 3 -320 84 -690 179
-369 95 -670 175 -668 177 2 3 334 29 738 59 403 29 744 55 758 56 21 3 -16
41 -259 273 -199 190 -277 271 -264 273 10 1 230 -20 488 -47 259 -27 471 -48
473 -46 1 1 -56 209 -127 461 -72 252 -129 460 -127 462 2 1 295 -151 650
-339 356 -188 650 -339 653 -335 3 3 37 180 74 392 38 213 70 388 71 390 2 1
163 -150 358 -336 195 -187 358 -339 361 -340 3 0 153 207 333 460 181 253
331 460 335 460 4 0 29 -170 56 -377z"/>
<path d="M8929 6017 c-570 -347 -1036 -633 -1035 -634 2 -2 2138 957 2145 963
3 3 -69 304 -73 304 0 0 -467 -285 -1037 -633z"/>
<path d="M610 6135 l-135 -134 -168 80 c-92 43 -170 79 -173 79 -3 0 34 -76
82 -170 l87 -169 -131 -138 c-72 -76 -130 -138 -129 -139 1 -1 85 11 186 28
101 16 188 25 192 21 4 -4 44 -75 89 -158 45 -82 85 -153 89 -157 4 -5 19 74
35 175 15 100 31 185 34 188 4 4 87 21 185 40 97 18 177 35 177 38 0 4 -74 43
-165 89 -91 45 -165 85 -165 89 1 5 11 89 24 188 13 99 23 181 22 182 -1 1
-62 -58 -136 -132z m24 -182 c-7 -54 -13 -101 -14 -105 0 -4 41 -28 91 -54 50
-26 87 -50 82 -54 -4 -4 -48 -15 -97 -24 -49 -9 -91 -18 -93 -20 -2 -2 -10
-45 -18 -97 -9 -52 -17 -98 -18 -104 -2 -5 -26 32 -53 83 -55 104 -45 99 -174
78 -47 -8 -86 -13 -87 -12 -1 0 30 36 70 80 l71 78 -47 94 c-26 52 -45 94 -43
94 3 0 46 -20 98 -45 l92 -45 76 75 c41 41 75 75 76 75 0 0 -5 -44 -12 -97z"/>
<path d="M8061 2436 c15 -12 2170 -1088 2173 -1085 5 5 -30 268 -36 274 -4 5
-2128 815 -2135 815 -4 0 -4 -2 -2 -4z"/>
<path d="M1080 1834 c-586 -249 -1069 -455 -1073 -456 -4 -2 -4 -88 0 -191 l8
-187 1065 636 c586 350 1069 640 1075 645 6 6 6 9 0 8 -6 0 -489 -205 -1075
-455z"/>
<path d="M1486 1488 c-66 -93 -125 -168 -133 -168 -7 0 -95 23 -195 50 -99 28
-183 49 -185 46 -3 -2 50 -77 116 -165 l122 -161 -39 -58 c-22 -31 -73 -109
-115 -173 l-75 -117 191 64 c105 35 195 64 199 64 4 0 62 -69 129 -152 67 -84
126 -157 131 -163 5 -6 6 77 2 200 l-7 211 197 73 c108 41 195 75 194 76 -2 1
-88 28 -193 60 -104 32 -193 60 -197 64 -3 3 -10 98 -15 211 l-8 205 -119
-167z m65 -322 c2 -1 51 -17 109 -35 57 -17 105 -33 107 -34 1 -2 -46 -21
-105 -43 l-107 -40 0 -112 c0 -62 -3 -112 -6 -112 -3 0 -36 38 -73 85 -37 47
-69 85 -70 85 -1 0 -49 -16 -106 -35 -57 -19 -105 -34 -106 -32 -2 1 24 44 57
95 36 55 57 97 53 105 -4 6 -34 47 -67 90 -32 43 -57 80 -55 82 3 4 132 -29
197 -50 16 -5 33 12 88 90 l68 96 6 -116 c4 -64 8 -117 10 -119z"/>
<path d="M9355 1200 c-110 -88 -202 -159 -205 -159 -3 0 -104 62 -225 138
-121 76 -221 137 -223 136 -1 -1 38 -112 88 -246 50 -134 89 -246 88 -250 -2
-4 -93 -82 -203 -174 l-200 -168 230 7 c127 4 246 9 265 12 l36 5 99 -245 c54
-135 101 -243 104 -240 3 2 36 113 73 246 37 133 71 245 75 249 5 3 123 15
263 24 140 10 256 19 258 20 1 1 -95 66 -213 145 -119 79 -218 147 -220 150
-2 3 25 119 59 258 35 139 61 252 57 252 -3 -1 -96 -72 -206 -160z m2 -273
l-34 -136 125 -83 126 -83 -100 -8 c-54 -4 -122 -10 -151 -13 l-51 -5 -39
-140 c-21 -76 -40 -139 -43 -139 -3 0 -29 61 -59 136 l-54 136 -151 -7 -151
-7 28 24 c15 13 65 55 111 93 47 39 85 75 85 82 1 6 -19 67 -44 134 -25 68
-44 127 -43 131 2 4 57 -26 123 -67 66 -41 122 -75 125 -75 3 1 55 41 115 89
61 49 111 85 113 81 2 -4 -13 -69 -31 -143z"/>
</g>
</svg>
